<svg width="140" height="140" viewBox="0 0 160 160" fill="none" xmlns="http://www.w3.org/2000/svg">
    <path d="M160 80C160 124.183 124.183 160 80 160C35.8172 160 0 124.183 0 80C0 35.8172 35.8172 0 80 0C124.183 0 160 35.8172 160 80ZM48 80C48 97.6731 62.3269 112 80 112C97.6731 112 112 97.6731 112 80C112 62.3269 97.6731 48 80 48C62.3269 48 48 62.3269 48 80Z" fill="#0F1112" />
    <circle cx="80" cy="80" r="20" fill="#0F1112" />
    <path d="M121.761 145.879C122.352 146.812 122.076 148.05 121.129 148.618C107.398 156.848 91.4975 160.778 75.4837 159.872C59.4699 158.967 44.114 153.27 31.3983 143.544C30.5209 142.873 30.3864 141.612 31.0792 140.752L58.6756 106.481C59.3683 105.621 60.624 105.491 61.5259 106.129C66.415 109.586 72.1886 111.609 78.1935 111.949C84.1984 112.288 90.1633 110.928 95.411 108.045C96.379 107.513 97.612 107.784 98.2034 108.717L121.761 145.879Z" fill="#01F0C8" />
    <path d="M80 2C80 0.895431 80.8958 -0.00261026 82 0.0249902C99.155 0.453782 115.738 6.38963 129.283 16.9828C143.354 27.9872 153.337 43.3843 157.642 60.7209C161.947 78.0574 160.326 96.336 153.037 112.644C146.02 128.343 134.14 141.347 119.178 149.75C118.215 150.291 117.003 149.916 116.486 148.94L95.9043 110.051C95.3876 109.075 95.764 107.87 96.7061 107.293C102.204 103.928 106.572 98.9708 109.215 93.0577C112.13 86.5344 112.779 79.223 111.057 72.2883C109.335 65.3537 105.342 59.1949 99.7133 54.7931C94.6113 50.8031 88.432 48.465 81.9987 48.0625C80.8963 47.9935 80 47.1046 80 46V2Z" fill="#927CFF" />
    <path d="M73.354 86.196C72.6447 86.196 72.0193 86.0607 71.478 85.79C70.9367 85.51 70.5167 85.1227 70.218 84.628C69.9193 84.1333 69.77 83.5593 69.77 82.906V79.518C69.77 78.7527 69.9193 78.1087 70.218 77.586C70.526 77.0633 70.9553 76.6713 71.506 76.41C72.0567 76.1393 72.696 76.004 73.424 76.004C74.1427 76.004 74.7633 76.13 75.286 76.382C75.8087 76.6247 76.21 76.9747 76.49 77.432C76.77 77.88 76.91 78.4073 76.91 79.014H75.426C75.426 78.5287 75.2627 78.1273 74.936 77.81C74.6187 77.4833 74.1147 77.32 73.424 77.32C72.724 77.32 72.1827 77.5067 71.8 77.88C71.4267 78.244 71.24 78.7527 71.24 79.406V80.582H71.464C71.6227 80.358 71.8793 80.1433 72.234 79.938C72.598 79.7327 73.1113 79.63 73.774 79.63C74.3527 79.63 74.8847 79.756 75.37 80.008C75.8553 80.26 76.2427 80.6193 76.532 81.086C76.8307 81.5527 76.98 82.1173 76.98 82.78V82.948C76.98 83.592 76.826 84.1613 76.518 84.656C76.21 85.1413 75.7807 85.5193 75.23 85.79C74.6887 86.0607 74.0633 86.196 73.354 86.196ZM73.368 84.88C74.0213 84.88 74.5393 84.7027 74.922 84.348C75.314 83.9933 75.51 83.5173 75.51 82.92V82.808C75.51 82.4067 75.4213 82.0613 75.244 81.772C75.0667 81.4733 74.8147 81.24 74.488 81.072C74.1707 80.904 73.7973 80.82 73.368 80.82C72.948 80.82 72.5747 80.904 72.248 81.072C71.9307 81.24 71.6833 81.4733 71.506 81.772C71.3287 82.0613 71.24 82.4067 71.24 82.808V82.92C71.24 83.5173 71.4313 83.9933 71.814 84.348C72.206 84.7027 72.724 84.88 73.368 84.88ZM81.1703 86V77.236H80.9463L79.3363 80.54H77.7823L79.9523 76.2H82.6403V86H81.1703ZM85.6303 86.182L84.7343 85.454L92.3923 76.018L93.2883 76.746L85.6303 86.182ZM91.6923 86.154C91.0016 86.154 90.4556 85.9627 90.0543 85.58C89.6529 85.188 89.4523 84.6607 89.4523 83.998V83.914C89.4523 83.242 89.6529 82.7147 90.0543 82.332C90.4556 81.94 91.0016 81.744 91.6923 81.744C92.3736 81.744 92.9196 81.94 93.3303 82.332C93.7409 82.7147 93.9463 83.242 93.9463 83.914V83.998C93.9463 84.6607 93.7409 85.188 93.3303 85.58C92.9289 85.9627 92.3829 86.154 91.6923 86.154ZM91.6923 85.174C92.0283 85.174 92.2896 85.0713 92.4763 84.866C92.6723 84.6607 92.7703 84.39 92.7703 84.054V83.858C92.7703 83.5127 92.6723 83.2373 92.4763 83.032C92.2896 82.8267 92.0283 82.724 91.6923 82.724C91.3656 82.724 91.1043 82.8267 90.9083 83.032C90.7216 83.2373 90.6283 83.5127 90.6283 83.858V84.054C90.6283 84.39 90.7216 84.6607 90.9083 84.866C91.1043 85.0713 91.3656 85.174 91.6923 85.174ZM86.3303 80.456C85.6396 80.456 85.0889 80.2647 84.6783 79.882C84.2769 79.49 84.0763 78.9627 84.0763 78.3V78.202C84.0763 77.53 84.2769 77.0027 84.6783 76.62C85.0889 76.2373 85.6396 76.046 86.3303 76.046C87.0116 76.046 87.5529 76.2373 87.9543 76.62C88.3649 77.0027 88.5703 77.53 88.5703 78.202V78.3C88.5703 78.9627 88.3696 79.49 87.9683 79.882C87.5669 80.2647 87.0209 80.456 86.3303 80.456ZM86.3303 79.476C86.6569 79.476 86.9136 79.3733 87.1003 79.168C87.2963 78.9533 87.3943 78.678 87.3943 78.342V78.146C87.3943 77.81 87.2963 77.5393 87.1003 77.334C86.9136 77.1287 86.6569 77.026 86.3303 77.026C85.9943 77.026 85.7283 77.1287 85.5323 77.334C85.3456 77.5393 85.2523 77.81 85.2523 78.146V78.342C85.2523 78.678 85.3456 78.9533 85.5323 79.168C85.7283 79.3733 85.9943 79.476 86.3303 79.476Z" fill="white" />
</svg>