<svg width="418" height="168" viewBox="0 0 418 168" fill="none" xmlns="http://www.w3.org/2000/svg">
    <path d="M3.43819 13V12.172C3.43819 11.572 3.54619 11.1 3.76219 10.756C3.97819 10.404 4.27819 10.124 4.66219 9.916C5.05419 9.708 5.51419 9.524 6.04219 9.364L6.64219 9.172C7.03419 9.052 7.37819 8.908 7.67419 8.74C7.97819 8.564 8.21419 8.34 8.38219 8.068C8.55019 7.796 8.63419 7.452 8.63419 7.036V6.988C8.63419 6.404 8.43019 5.944 8.02219 5.608C7.62219 5.272 7.11019 5.104 6.48619 5.104C5.82219 5.104 5.27819 5.284 4.85419 5.644C4.43019 5.996 4.21819 6.536 4.21819 7.264V7.42H3.49819V7.264C3.49819 6.656 3.62619 6.144 3.88219 5.728C4.13819 5.304 4.49019 4.984 4.93819 4.768C5.39419 4.544 5.91019 4.432 6.48619 4.432C7.06219 4.432 7.56619 4.54 7.99819 4.756C8.43819 4.964 8.77819 5.26 9.01819 5.644C9.25819 6.02 9.37819 6.46 9.37819 6.964V7.072C9.37819 7.616 9.27019 8.064 9.05419 8.416C8.84619 8.76 8.55019 9.044 8.16619 9.268C7.78219 9.484 7.33019 9.676 6.81019 9.844L6.21019 10.024C5.77819 10.16 5.41019 10.304 5.10619 10.456C4.81019 10.6 4.58219 10.796 4.42219 11.044C4.26219 11.284 4.18219 11.62 4.18219 12.052V12.328H9.30619V13H3.43819ZM13.8475 13.168C12.9035 13.168 12.1555 12.884 11.6035 12.316C11.0595 11.74 10.7875 10.888 10.7875 9.76V7.84C10.7875 6.712 11.0595 5.864 11.6035 5.296C12.1555 4.72 12.9035 4.432 13.8475 4.432C14.7915 4.432 15.5355 4.72 16.0795 5.296C16.6315 5.864 16.9075 6.712 16.9075 7.84V9.76C16.9075 10.888 16.6315 11.74 16.0795 12.316C15.5355 12.884 14.7915 13.168 13.8475 13.168ZM13.8475 12.496C14.6155 12.496 15.1915 12.26 15.5755 11.788C15.9675 11.308 16.1635 10.648 16.1635 9.808V7.792C16.1635 6.952 15.9675 6.296 15.5755 5.824C15.1915 5.344 14.6155 5.104 13.8475 5.104C13.0795 5.104 12.4995 5.344 12.1075 5.824C11.7235 6.296 11.5315 6.952 11.5315 7.792V9.808C11.5315 10.648 11.7235 11.308 12.1075 11.788C12.4995 12.26 13.0795 12.496 13.8475 12.496ZM18.7279 13V4.6H19.4479V9.664H19.5919L22.5799 7.168H23.6359L20.1799 10.012L23.7319 13H22.6879L19.5919 10.372H19.4479V13H18.7279Z" fill="#55565C"/>
    <path d="M8.72044 45.5V37.556H8.56444L6.72844 40.676H5.88844L8.01244 37.1H9.46444V45.5H8.72044ZM14.112 45.668C13.52 45.668 13.004 45.552 12.564 45.32C12.124 45.08 11.78 44.752 11.532 44.336C11.292 43.912 11.172 43.424 11.172 42.872V42.716H11.916V42.836C11.916 43.556 12.12 44.096 12.528 44.456C12.936 44.816 13.46 44.996 14.1 44.996C14.788 44.996 15.324 44.8 15.708 44.408C16.1 44.016 16.296 43.472 16.296 42.776V42.68C16.296 42.016 16.108 41.488 15.732 41.096C15.364 40.704 14.876 40.508 14.268 40.508C13.916 40.508 13.624 40.568 13.392 40.688C13.16 40.8 12.976 40.94 12.84 41.108C12.712 41.268 12.608 41.424 12.528 41.576H11.424V37.1H16.848V37.772H12.168V41.024H12.312C12.4 40.84 12.528 40.66 12.696 40.484C12.864 40.308 13.088 40.16 13.368 40.04C13.656 39.92 14.012 39.86 14.436 39.86C14.924 39.86 15.364 39.976 15.756 40.208C16.148 40.432 16.46 40.756 16.692 41.18C16.924 41.596 17.04 42.092 17.04 42.668V42.788C17.04 43.348 16.92 43.844 16.68 44.276C16.448 44.708 16.112 45.048 15.672 45.296C15.24 45.544 14.72 45.668 14.112 45.668ZM18.7279 45.5V37.1H19.4479V42.164H19.5919L22.5799 39.668H23.6359L20.1799 42.512L23.7319 45.5H22.6879L19.5919 42.872H19.4479V45.5H18.7279Z" fill="#55565C"/>
    <path d="M8.23997 78V70.056H8.08397L6.24797 73.176H5.40797L7.53197 69.6H8.98397V78H8.23997ZM13.8475 78.168C12.9035 78.168 12.1555 77.884 11.6035 77.316C11.0595 76.74 10.7875 75.888 10.7875 74.76V72.84C10.7875 71.712 11.0595 70.864 11.6035 70.296C12.1555 69.72 12.9035 69.432 13.8475 69.432C14.7915 69.432 15.5355 69.72 16.0795 70.296C16.6315 70.864 16.9075 71.712 16.9075 72.84V74.76C16.9075 75.888 16.6315 76.74 16.0795 77.316C15.5355 77.884 14.7915 78.168 13.8475 78.168ZM13.8475 77.496C14.6155 77.496 15.1915 77.26 15.5755 76.788C15.9675 76.308 16.1635 75.648 16.1635 74.808V72.792C16.1635 71.952 15.9675 71.296 15.5755 70.824C15.1915 70.344 14.6155 70.104 13.8475 70.104C13.0795 70.104 12.4995 70.344 12.1075 70.824C11.7235 71.296 11.5315 71.952 11.5315 72.792V74.808C11.5315 75.648 11.7235 76.308 12.1075 76.788C12.4995 77.26 13.0795 77.496 13.8475 77.496ZM18.7279 78V69.6H19.4479V74.664H19.5919L22.5799 72.168H23.6359L20.1799 75.012L23.7319 78H22.6879L19.5919 75.372H19.4479V78H18.7279Z" fill="#55565C"/>
    <path d="M14.112 110.668C13.52 110.668 13.004 110.552 12.564 110.32C12.124 110.08 11.78 109.752 11.532 109.336C11.292 108.912 11.172 108.424 11.172 107.872V107.716H11.916V107.836C11.916 108.556 12.12 109.096 12.528 109.456C12.936 109.816 13.46 109.996 14.1 109.996C14.788 109.996 15.324 109.8 15.708 109.408C16.1 109.016 16.296 108.472 16.296 107.776V107.68C16.296 107.016 16.108 106.488 15.732 106.096C15.364 105.704 14.876 105.508 14.268 105.508C13.916 105.508 13.624 105.568 13.392 105.688C13.16 105.8 12.976 105.94 12.84 106.108C12.712 106.268 12.608 106.424 12.528 106.576H11.424V102.1H16.848V102.772H12.168V106.024H12.312C12.4 105.84 12.528 105.66 12.696 105.484C12.864 105.308 13.088 105.16 13.368 105.04C13.656 104.92 14.012 104.86 14.436 104.86C14.924 104.86 15.364 104.976 15.756 105.208C16.148 105.432 16.46 105.756 16.692 106.18C16.924 106.596 17.04 107.092 17.04 107.668V107.788C17.04 108.348 16.92 108.844 16.68 109.276C16.448 109.708 16.112 110.048 15.672 110.296C15.24 110.544 14.72 110.668 14.112 110.668ZM18.7279 110.5V102.1H19.4479V107.164H19.5919L22.5799 104.668H23.6359L20.1799 107.512L23.7319 110.5H22.6879L19.5919 107.872H19.4479V110.5H18.7279Z" fill="#55565C"/>
    <path d="M20.1757 143.168C19.2317 143.168 18.4837 142.884 17.9317 142.316C17.3877 141.74 17.1157 140.888 17.1157 139.76V137.84C17.1157 136.712 17.3877 135.864 17.9317 135.296C18.4837 134.72 19.2317 134.432 20.1757 134.432C21.1197 134.432 21.8637 134.72 22.4077 135.296C22.9597 135.864 23.2357 136.712 23.2357 137.84V139.76C23.2357 140.888 22.9597 141.74 22.4077 142.316C21.8637 142.884 21.1197 143.168 20.1757 143.168ZM20.1757 142.496C20.9437 142.496 21.5197 142.26 21.9037 141.788C22.2957 141.308 22.4917 140.648 22.4917 139.808V137.792C22.4917 136.952 22.2957 136.296 21.9037 135.824C21.5197 135.344 20.9437 135.104 20.1757 135.104C19.4077 135.104 18.8277 135.344 18.4357 135.824C18.0517 136.296 17.8597 136.952 17.8597 137.792V139.808C17.8597 140.648 18.0517 141.308 18.4357 141.788C18.8277 142.26 19.4077 142.496 20.1757 142.496Z" fill="#55565C"/>
    <line x1="40.5" y1="0.5" x2="417.5" y2="0.5" stroke="#232526" stroke-linecap="square" stroke-dasharray="1 4"/>
    <line x1="40.5" y1="37.25" x2="417.5" y2="37.25" stroke="#232526" stroke-linecap="square" stroke-dasharray="1 4"/>
    <line x1="40.5" y1="74" x2="417.5" y2="74" stroke="#232526" stroke-linecap="square" stroke-dasharray="1 4"/>
    <line x1="40.5" y1="110.75" x2="417.5" y2="110.75" stroke="#232526" stroke-linecap="square" stroke-dasharray="1 4"/>
    <line x1="40.5" y1="147.5" x2="417.5" y2="147.5" stroke="#232526" stroke-linecap="square" stroke-dasharray="1 4"/>
    <path d="M48 39C48 37.8954 48.8954 37 50 37H56C57.1046 37 58 37.8954 58 39V148H48V39Z" fill="#927CFF"/>
    <path d="M60 52C60 50.8954 60.8954 50 62 50H68C69.1046 50 70 50.8954 70 52V148H60V52Z" fill="#01F0C8"/>
    <path d="M95.25 67C95.25 65.8954 96.1454 65 97.25 65H103.25C104.355 65 105.25 65.8954 105.25 67V148H95.25V67Z" fill="#927CFF"/>
    <path d="M107.25 72C107.25 70.8954 108.145 70 109.25 70H115.25C116.355 70 117.25 70.8954 117.25 72V148H107.25V72Z" fill="#01F0C8"/>
    <path d="M142.5 10C142.5 8.89543 143.395 8 144.5 8H150.5C151.605 8 152.5 8.89543 152.5 10V148H142.5V10Z" fill="#927CFF"/>
    <path d="M154.5 22C154.5 20.8954 155.395 20 156.5 20H162.5C163.605 20 164.5 20.8954 164.5 22V148H154.5V22Z" fill="#01F0C8"/>
    <path d="M189.75 113C189.75 111.895 190.645 111 191.75 111H197.75C198.855 111 199.75 111.895 199.75 113V148H189.75V113Z" fill="#927CFF"/>
    <path d="M201.75 116C201.75 114.895 202.645 114 203.75 114H209.75C210.855 114 211.75 114.895 211.75 116V148H201.75V116Z" fill="#01F0C8"/>
    <path d="M237 58C237 56.8954 237.895 56 239 56H245C246.105 56 247 56.8954 247 58V148H237V58Z" fill="#927CFF"/>
    <path d="M249 85C249 83.8954 249.895 83 251 83H257C258.105 83 259 83.8954 259 85V148H249V85Z" fill="#01F0C8"/>
    <path d="M284.25 100C284.25 98.8954 285.145 98 286.25 98H292.25C293.355 98 294.25 98.8954 294.25 100V148H284.25V100Z" fill="#927CFF"/>
    <path d="M296.25 106C296.25 104.895 297.145 104 298.25 104H304.25C305.355 104 306.25 104.895 306.25 106V148H296.25V106Z" fill="#01F0C8"/>
    <path d="M331.5 50C331.5 48.8954 332.395 48 333.5 48H339.5C340.605 48 341.5 48.8954 341.5 50V148H331.5V50Z" fill="#927CFF"/>
    <path d="M343.5 28C343.5 26.8954 344.395 26 345.5 26H351.5C352.605 26 353.5 26.8954 353.5 28V148H343.5V28Z" fill="#01F0C8"/>
    <path d="M378.75 55C378.75 53.8954 379.645 53 380.75 53H386.75C387.855 53 388.75 53.8954 388.75 55V148H378.75V55Z" fill="#927CFF"/>
    <path d="M390.75 61C390.75 59.8954 391.645 59 392.75 59H398.75C399.855 59 400.75 59.8954 400.75 61V148H390.75V61Z" fill="#01F0C8"/>
    <path d="M52.4953 164.168C51.6953 164.168 51.0593 163.94 50.5873 163.484C50.1233 163.02 49.8913 162.352 49.8913 161.48V160.892H50.6593V161.48C50.6593 162.064 50.8113 162.544 51.1153 162.92C51.4193 163.288 51.8833 163.472 52.5073 163.472C53.1473 163.472 53.5913 163.288 53.8393 162.92C54.0873 162.544 54.2113 162.064 54.2113 161.48V156.296H52.7233V155.6H55.8673V156.296H54.9793V161.48C54.9793 162.352 54.7713 163.02 54.3553 163.484C53.9473 163.94 53.3273 164.168 52.4953 164.168ZM58.9924 164.168C58.5844 164.168 58.2124 164.1 57.8764 163.964C57.5484 163.82 57.2884 163.612 57.0964 163.34C56.9044 163.068 56.8084 162.74 56.8084 162.356C56.8084 161.964 56.9044 161.64 57.0964 161.384C57.2884 161.128 57.5484 160.936 57.8764 160.808C58.2044 160.68 58.5684 160.616 58.9684 160.616H61.1044V160.148C61.1044 159.676 60.9684 159.308 60.6964 159.044C60.4244 158.78 60.0284 158.648 59.5084 158.648C58.9964 158.648 58.5884 158.776 58.2844 159.032C57.9884 159.28 57.7884 159.616 57.6844 160.04L56.9884 159.836C57.0844 159.492 57.2364 159.184 57.4444 158.912C57.6524 158.632 57.9284 158.412 58.2724 158.252C58.6164 158.084 59.0284 158 59.5084 158C60.2444 158 60.8124 158.192 61.2124 158.576C61.6204 158.96 61.8244 159.496 61.8244 160.184V163.016C61.8244 163.256 61.9364 163.376 62.1604 163.376H62.7244V164H61.9564C61.7084 164 61.5124 163.928 61.3684 163.784C61.2244 163.632 61.1524 163.428 61.1524 163.172V163.088H61.0324C60.9284 163.264 60.7924 163.436 60.6244 163.604C60.4644 163.772 60.2524 163.908 59.9884 164.012C59.7244 164.116 59.3924 164.168 58.9924 164.168ZM59.0404 163.52C59.6564 163.52 60.1524 163.336 60.5284 162.968C60.9124 162.592 61.1044 162.064 61.1044 161.384V161.24H58.9804C58.5644 161.24 58.2164 161.332 57.9364 161.516C57.6644 161.692 57.5284 161.968 57.5284 162.344C57.5284 162.72 57.6684 163.012 57.9484 163.22C58.2364 163.42 58.6004 163.52 59.0404 163.52ZM64.0951 164V158.168H64.7911V159.248H64.9351C65.0791 158.936 65.3151 158.66 65.6431 158.42C65.9711 158.172 66.4471 158.048 67.0711 158.048C67.4951 158.048 67.8831 158.136 68.2351 158.312C68.5871 158.488 68.8671 158.756 69.0751 159.116C69.2911 159.468 69.3991 159.912 69.3991 160.448V164H68.6791V160.496C68.6791 159.856 68.5191 159.396 68.1991 159.116C67.8791 158.836 67.4511 158.696 66.9151 158.696C66.3151 158.696 65.8151 158.896 65.4151 159.296C65.0151 159.688 64.8151 160.284 64.8151 161.084V164H64.0951Z" fill="#55565C"/>
    <path d="M97.9812 164V155.6H102.973V156.296H98.7492V159.44H102.625V160.136H98.7492V164H97.9812ZM107.115 164.168C106.515 164.168 105.991 164.044 105.543 163.796C105.103 163.54 104.759 163.184 104.511 162.728C104.263 162.272 104.139 161.748 104.139 161.156V161.012C104.139 160.412 104.263 159.888 104.511 159.44C104.759 158.984 105.099 158.632 105.531 158.384C105.971 158.128 106.471 158 107.031 158C107.575 158 108.055 158.116 108.471 158.348C108.895 158.572 109.227 158.9 109.467 159.332C109.707 159.756 109.827 160.264 109.827 160.856V161.24H104.859C104.883 161.968 105.103 162.532 105.519 162.932C105.943 163.324 106.475 163.52 107.115 163.52C107.659 163.52 108.079 163.396 108.375 163.148C108.679 162.9 108.911 162.596 109.071 162.236L109.719 162.524C109.599 162.788 109.431 163.048 109.215 163.304C109.007 163.552 108.735 163.76 108.399 163.928C108.063 164.088 107.635 164.168 107.115 164.168ZM104.871 160.616H109.095C109.063 159.984 108.859 159.5 108.483 159.164C108.107 158.82 107.623 158.648 107.031 158.648C106.447 158.648 105.963 158.82 105.579 159.164C105.195 159.5 104.959 159.984 104.871 160.616ZM114.719 164.168C114.079 164.168 113.579 164.044 113.219 163.796C112.867 163.54 112.607 163.252 112.439 162.932H112.295V164H111.599V155.6H112.319V159.188H112.463C112.567 158.988 112.711 158.8 112.895 158.624C113.087 158.44 113.331 158.292 113.627 158.18C113.931 158.06 114.295 158 114.719 158C115.247 158 115.723 158.124 116.147 158.372C116.571 158.612 116.907 158.96 117.155 159.416C117.403 159.864 117.527 160.396 117.527 161.012V161.156C117.527 161.772 117.399 162.308 117.143 162.764C116.895 163.212 116.559 163.56 116.135 163.808C115.711 164.048 115.239 164.168 114.719 164.168ZM114.551 163.52C115.215 163.52 115.751 163.308 116.159 162.884C116.575 162.46 116.783 161.876 116.783 161.132V161.036C116.783 160.292 116.575 159.708 116.159 159.284C115.751 158.86 115.215 158.648 114.551 158.648C113.895 158.648 113.359 158.86 112.943 159.284C112.527 159.708 112.319 160.292 112.319 161.036V161.132C112.319 161.876 112.527 162.46 112.943 162.884C113.359 163.308 113.895 163.52 114.551 163.52Z" fill="#55565C"/>
    <path d="M145.596 164V155.6H147.096L149.64 163.544H149.784L152.328 155.6H153.828V164H153.084V156.056H152.94L150.396 164H149.028L146.484 156.056H146.34V164H145.596ZM157.709 164.168C157.301 164.168 156.929 164.1 156.593 163.964C156.265 163.82 156.005 163.612 155.813 163.34C155.621 163.068 155.525 162.74 155.525 162.356C155.525 161.964 155.621 161.64 155.813 161.384C156.005 161.128 156.265 160.936 156.593 160.808C156.921 160.68 157.285 160.616 157.685 160.616H159.821V160.148C159.821 159.676 159.685 159.308 159.413 159.044C159.141 158.78 158.745 158.648 158.225 158.648C157.713 158.648 157.305 158.776 157.001 159.032C156.705 159.28 156.505 159.616 156.401 160.04L155.705 159.836C155.801 159.492 155.953 159.184 156.161 158.912C156.369 158.632 156.645 158.412 156.989 158.252C157.333 158.084 157.745 158 158.225 158C158.961 158 159.529 158.192 159.929 158.576C160.337 158.96 160.541 159.496 160.541 160.184V163.016C160.541 163.256 160.653 163.376 160.877 163.376H161.441V164H160.673C160.425 164 160.229 163.928 160.085 163.784C159.941 163.632 159.869 163.428 159.869 163.172V163.088H159.749C159.645 163.264 159.509 163.436 159.341 163.604C159.181 163.772 158.969 163.908 158.705 164.012C158.441 164.116 158.109 164.168 157.709 164.168ZM157.757 163.52C158.373 163.52 158.869 163.336 159.245 162.968C159.629 162.592 159.821 162.064 159.821 161.384V161.24H157.697C157.281 161.24 156.933 161.332 156.653 161.516C156.381 161.692 156.245 161.968 156.245 162.344C156.245 162.72 156.385 163.012 156.665 163.22C156.953 163.42 157.317 163.52 157.757 163.52ZM162.812 164V158.168H163.508V158.9H163.652C163.764 158.636 163.928 158.444 164.144 158.324C164.368 158.204 164.676 158.144 165.068 158.144H165.752V158.816H164.984C164.544 158.816 164.192 158.94 163.928 159.188C163.664 159.436 163.532 159.824 163.532 160.352V164H162.812Z" fill="#55565C"/>
    <path d="M193.6 164L196.348 155.6H197.716L200.464 164H199.66L198.94 161.768H195.124L194.404 164H193.6ZM195.34 161.072H198.724L197.104 156.056H196.96L195.34 161.072ZM201.855 166.4V158.168H202.551V159.236H202.695C202.863 158.916 203.123 158.632 203.475 158.384C203.835 158.128 204.335 158 204.975 158C205.495 158 205.967 158.124 206.391 158.372C206.815 158.612 207.151 158.956 207.399 159.404C207.655 159.852 207.783 160.388 207.783 161.012V161.156C207.783 161.772 207.659 162.308 207.411 162.764C207.163 163.212 206.827 163.56 206.403 163.808C205.979 164.048 205.503 164.168 204.975 164.168C204.551 164.168 204.187 164.112 203.883 164C203.587 163.88 203.343 163.728 203.151 163.544C202.967 163.36 202.823 163.172 202.719 162.98H202.575V166.4H201.855ZM204.807 163.52C205.471 163.52 206.007 163.308 206.415 162.884C206.831 162.46 207.039 161.876 207.039 161.132V161.036C207.039 160.292 206.831 159.708 206.415 159.284C206.007 158.86 205.471 158.648 204.807 158.648C204.151 158.648 203.615 158.86 203.199 159.284C202.783 159.708 202.575 160.292 202.575 161.036V161.132C202.575 161.876 202.783 162.46 203.199 162.884C203.615 163.308 204.151 163.52 204.807 163.52ZM209.613 164V158.168H210.309V158.9H210.453C210.565 158.636 210.729 158.444 210.945 158.324C211.169 158.204 211.477 158.144 211.869 158.144H212.553V158.816H211.785C211.345 158.816 210.993 158.94 210.729 159.188C210.465 159.436 210.333 159.824 210.333 160.352V164H209.613Z" fill="#55565C"/>
    <path d="M239.714 164V155.6H241.214L243.758 163.544H243.902L246.446 155.6H247.946V164H247.202V156.056H247.058L244.514 164H243.146L240.602 156.056H240.458V164H239.714ZM251.826 164.168C251.418 164.168 251.046 164.1 250.71 163.964C250.382 163.82 250.122 163.612 249.93 163.34C249.738 163.068 249.642 162.74 249.642 162.356C249.642 161.964 249.738 161.64 249.93 161.384C250.122 161.128 250.382 160.936 250.71 160.808C251.038 160.68 251.402 160.616 251.802 160.616H253.938V160.148C253.938 159.676 253.802 159.308 253.53 159.044C253.258 158.78 252.862 158.648 252.342 158.648C251.83 158.648 251.422 158.776 251.118 159.032C250.822 159.28 250.622 159.616 250.518 160.04L249.822 159.836C249.918 159.492 250.07 159.184 250.278 158.912C250.486 158.632 250.762 158.412 251.106 158.252C251.45 158.084 251.862 158 252.342 158C253.078 158 253.646 158.192 254.046 158.576C254.454 158.96 254.658 159.496 254.658 160.184V163.016C254.658 163.256 254.77 163.376 254.994 163.376H255.558V164H254.79C254.542 164 254.346 163.928 254.202 163.784C254.058 163.632 253.986 163.428 253.986 163.172V163.088H253.866C253.762 163.264 253.626 163.436 253.458 163.604C253.298 163.772 253.086 163.908 252.822 164.012C252.558 164.116 252.226 164.168 251.826 164.168ZM251.874 163.52C252.49 163.52 252.986 163.336 253.362 162.968C253.746 162.592 253.938 162.064 253.938 161.384V161.24H251.814C251.398 161.24 251.05 161.332 250.77 161.516C250.498 161.692 250.362 161.968 250.362 162.344C250.362 162.72 250.502 163.012 250.782 163.22C251.07 163.42 251.434 163.52 251.874 163.52ZM257.52 166.4V165.752H260.928C261.168 165.752 261.288 165.632 261.288 165.392V162.992H261.144C261.048 163.184 260.912 163.368 260.736 163.544C260.568 163.712 260.344 163.852 260.064 163.964C259.792 164.068 259.448 164.12 259.032 164.12C258.616 164.12 258.228 164.032 257.868 163.856C257.516 163.68 257.232 163.416 257.016 163.064C256.808 162.712 256.704 162.268 256.704 161.732V158.168H257.424V161.684C257.424 162.316 257.584 162.772 257.904 163.052C258.224 163.332 258.652 163.472 259.188 163.472C259.788 163.472 260.288 163.276 260.688 162.884C261.088 162.492 261.288 161.896 261.288 161.096V158.168H262.008V165.488C262.008 165.776 261.928 166 261.768 166.16C261.616 166.32 261.384 166.4 261.072 166.4H257.52Z" fill="#55565C"/>
    <path d="M291.023 164.168C290.223 164.168 289.587 163.94 289.115 163.484C288.651 163.02 288.419 162.352 288.419 161.48V160.892H289.187V161.48C289.187 162.064 289.339 162.544 289.643 162.92C289.947 163.288 290.411 163.472 291.035 163.472C291.675 163.472 292.119 163.288 292.367 162.92C292.615 162.544 292.739 162.064 292.739 161.48V156.296H291.251V155.6H294.395V156.296H293.507V161.48C293.507 162.352 293.299 163.02 292.883 163.484C292.475 163.94 291.855 164.168 291.023 164.168ZM297.976 164.12C297.56 164.12 297.172 164.032 296.812 163.856C296.46 163.68 296.176 163.416 295.96 163.064C295.752 162.704 295.648 162.256 295.648 161.72V158.168H296.368V161.672C296.368 162.304 296.528 162.764 296.848 163.052C297.168 163.332 297.596 163.472 298.132 163.472C298.732 163.472 299.232 163.276 299.632 162.884C300.032 162.484 300.232 161.884 300.232 161.084V158.168H300.952V164H300.256V162.92H300.112C299.968 163.232 299.732 163.512 299.404 163.76C299.076 164 298.6 164.12 297.976 164.12ZM303.068 164V158.168H303.764V159.248H303.908C304.052 158.936 304.288 158.66 304.616 158.42C304.944 158.172 305.42 158.048 306.044 158.048C306.468 158.048 306.856 158.136 307.208 158.312C307.56 158.488 307.84 158.756 308.048 159.116C308.264 159.468 308.372 159.912 308.372 160.448V164H307.652V160.496C307.652 159.856 307.492 159.396 307.172 159.116C306.852 158.836 306.424 158.696 305.888 158.696C305.288 158.696 304.788 158.896 304.388 159.296C303.988 159.688 303.788 160.284 303.788 161.084V164H303.068Z" fill="#55565C"/>
    <path d="M341.028 164.168C340.228 164.168 339.592 163.94 339.12 163.484C338.656 163.02 338.424 162.352 338.424 161.48V160.892H339.192V161.48C339.192 162.064 339.344 162.544 339.648 162.92C339.952 163.288 340.416 163.472 341.04 163.472C341.68 163.472 342.124 163.288 342.372 162.92C342.62 162.544 342.744 162.064 342.744 161.48V156.296H341.256V155.6H344.4V156.296H343.512V161.48C343.512 162.352 343.304 163.02 342.888 163.484C342.48 163.94 341.86 164.168 341.028 164.168ZM347.982 164.12C347.566 164.12 347.178 164.032 346.818 163.856C346.466 163.68 346.182 163.416 345.966 163.064C345.758 162.704 345.654 162.256 345.654 161.72V158.168H346.374V161.672C346.374 162.304 346.534 162.764 346.854 163.052C347.174 163.332 347.602 163.472 348.138 163.472C348.738 163.472 349.238 163.276 349.638 162.884C350.038 162.484 350.238 161.884 350.238 161.084V158.168H350.958V164H350.262V162.92H350.118C349.974 163.232 349.738 163.512 349.41 163.76C349.082 164 348.606 164.12 347.982 164.12ZM353.074 164V155.6H353.794V164H353.074Z" fill="#55565C"/>
    <path d="M383.164 164L385.912 155.6H387.28L390.028 164H389.224L388.504 161.768H384.688L383.968 164H383.164ZM384.904 161.072H388.288L386.668 156.056H386.524L384.904 161.072ZM393.663 164.12C393.247 164.12 392.859 164.032 392.499 163.856C392.147 163.68 391.863 163.416 391.647 163.064C391.439 162.704 391.335 162.256 391.335 161.72V158.168H392.055V161.672C392.055 162.304 392.215 162.764 392.535 163.052C392.855 163.332 393.283 163.472 393.819 163.472C394.419 163.472 394.919 163.276 395.319 162.884C395.719 162.484 395.919 161.884 395.919 161.084V158.168H396.639V164H395.943V162.92H395.799C395.655 163.232 395.419 163.512 395.091 163.76C394.763 164 394.287 164.12 393.663 164.12ZM398.467 161.108V160.964C398.467 160.348 398.591 159.82 398.839 159.38C399.095 158.94 399.435 158.6 399.859 158.36C400.283 158.12 400.755 158 401.275 158C401.915 158 402.411 158.128 402.763 158.384C403.123 158.632 403.387 158.916 403.555 159.236H403.699V158.168H404.371V165.488C404.371 165.776 404.295 166 404.143 166.16C403.991 166.32 403.759 166.4 403.447 166.4H399.463V165.752H403.303C403.551 165.752 403.675 165.632 403.675 165.392V162.884H403.531C403.427 163.076 403.279 163.264 403.087 163.448C402.903 163.632 402.663 163.784 402.367 163.904C402.071 164.016 401.707 164.072 401.275 164.072C400.755 164.072 400.279 163.952 399.847 163.712C399.423 163.472 399.087 163.132 398.839 162.692C398.591 162.244 398.467 161.716 398.467 161.108ZM401.443 163.424C402.107 163.424 402.643 163.216 403.051 162.8C403.467 162.384 403.675 161.812 403.675 161.084V160.988C403.675 160.252 403.467 159.68 403.051 159.272C402.643 158.856 402.107 158.648 401.443 158.648C400.787 158.648 400.251 158.856 399.835 159.272C399.419 159.68 399.211 160.252 399.211 160.988V161.084C399.211 161.812 399.419 162.384 399.835 162.8C400.251 163.216 400.787 163.424 401.443 163.424Z" fill="#55565C"/>
    </svg>
    