<svg viewBox="0 0 32 32" fill="none" xmlns="http://www.w3.org/2000/svg">
  <path d="M1.83134 4.94375C0.975091 5.2125 0.250091 6.01875 0.0625906 6.9125C0.0188406 7.11875 9.06215e-05 10.1312 0.0125906 16.1875L0.0313406 25.1562L0.212591 25.55C0.562591 26.3125 1.13759 26.8375 1.85634 27.0625C2.25634 27.1875 2.40634 27.1875 16.0001 27.1875C29.4376 27.1875 29.7501 27.1875 30.1314 27.0687C30.8814 26.8312 31.4001 26.3625 31.7689 25.575L31.9689 25.1562V16V6.84375L31.7689 6.425C31.4001 5.6375 30.8814 5.16875 30.1314 4.93125C29.7501 4.8125 29.4376 4.8125 15.9813 4.81875C2.50634 4.81875 2.21259 4.825 1.83134 4.94375ZM30.0189 6.025C30.3251 6.175 30.5939 6.44375 30.7689 6.775C30.8876 7 30.9064 7.14375 30.9251 8.04375L30.9501 9.0625H16.0063H1.06259V8.1375C1.06884 7.16875 1.11884 6.91875 1.38134 6.5375C1.53759 6.30625 1.85634 6.06875 2.15009 5.95625C2.29384 5.9 5.66884 5.8875 16.0626 5.89375C29.3939 5.90625 29.7876 5.9125 30.0189 6.025ZM30.9376 11.7187V13.3125H16.0001H1.06259V11.7187V10.125H16.0001H30.9376V11.7187ZM30.9251 19.6687L30.9064 24.9687L30.7689 25.225C30.6001 25.5375 30.3001 25.8312 30.0064 25.9812C29.7939 26.0875 29.1376 26.0937 16.0001 26.0937C2.86259 26.0937 2.20634 26.0875 1.99384 25.9812C1.70009 25.8312 1.40009 25.5375 1.23134 25.225L1.09384 24.9687L1.07509 19.6687L1.06259 14.375H16.0001H30.9376L30.9251 19.6687Z" />
  <path d="M3.27519 16.1187C3.13144 16.1812 2.95019 16.3312 2.86894 16.4437C2.73144 16.6375 2.71894 16.725 2.70019 17.5062C2.67519 18.4937 2.73144 18.6937 3.10019 18.975L3.33144 19.1562L13.8064 19.1687L24.2814 19.1875L24.5314 19.0437C24.9502 18.8125 25.0627 18.5 25.0627 17.5875C25.0627 16.6687 24.9502 16.3812 24.5002 16.1437L24.2314 16H13.8814C3.92519 16 3.51894 16.0062 3.27519 16.1187ZM24.0002 17.5937V18.125H13.8752H3.75019V17.5937V17.0625H13.8752H24.0002V17.5937Z" />
  <path d="M26.7812 16.0875C26.525 16.2063 26.2625 16.5 26.1875 16.7563C26.15 16.8688 26.125 17.275 26.125 17.65C26.125 18.4938 26.2375 18.7875 26.6625 19.0375C26.925 19.1938 26.9625 19.1938 27.8 19.175C28.6437 19.1563 28.675 19.15 28.9 18.975C29.2687 18.6938 29.325 18.4938 29.3 17.5063C29.2812 16.725 29.2687 16.6375 29.1312 16.4438C28.8812 16.0938 28.5812 16 27.7187 16.0063C27.2312 16.0063 26.9062 16.0313 26.7812 16.0875ZM28.25 17.5938V18.125H27.7187H27.1875V17.5938V17.0625H27.7187H28.25V17.5938Z" />
  <path d="M22.0313 20.9687C21.8125 21.1812 21.825 21.4562 22.0563 21.6937L22.2375 21.875H25.5625C29.0625 21.875 29.1688 21.8687 29.275 21.5937C29.3563 21.375 29.3125 21.1187 29.1563 20.9687L29.0063 20.8125H25.5938H22.1813L22.0313 20.9687Z" />
  <path d="M24.7188 23.0937C24.6125 23.1937 24.5625 23.3125 24.5625 23.4687C24.5625 23.625 24.6125 23.7437 24.7188 23.8437L24.8688 24H26.9375H29.0063L29.1563 23.8437C29.2625 23.7437 29.3125 23.625 29.3125 23.4687C29.3125 23.3125 29.2625 23.1937 29.1563 23.0937L29.0063 22.9375H26.9375H24.8688L24.7188 23.0937Z" />
</svg>