<svg viewBox="0 0 24 24" fill="none" xmlns="http://www.w3.org/2000/svg">
    <path d="M13 12.25C13 12.9404 12.4404 13.5 11.75 13.5C11.0596 13.5 10.5 12.9404 10.5 12.25C10.5 11.5596 11.0596 11 11.75 11C12.4404 11 13 11.5596 13 12.25Z" fill="currentColor" />
    <path d="M8.5 12.25C8.5 12.9404 7.94035 13.5 7.25 13.5C6.55965 13.5 6 12.9404 6 12.25C6 11.5596 6.55965 11 7.25 11C7.94035 11 8.5 11.5596 8.5 12.25Z" fill="currentColor" />
    <path d="M17.5 12.25C17.5 12.9404 16.9404 13.5 16.25 13.5C15.5596 13.5 15 12.9404 15 12.25C15 11.5596 15.5596 11 16.25 11C16.9404 11 17.5 11.5596 17.5 12.25Z" fill="currentColor" />
    <path fill-rule="evenodd" clip-rule="evenodd" d="M11.75 3.5C7.19365 3.5 3.5 7.19365 3.5 11.75C3.5 16.3063 7.19365 20 11.75 20C16.3063 20 20 16.3063 20 11.75C20 7.19365 16.3063 3.5 11.75 3.5ZM2 11.75C2 6.36522 6.36522 2 11.75 2C17.1348 2 21.5 6.36522 21.5 11.75C21.5 17.1348 17.1348 21.5 11.75 21.5C6.36522 21.5 2 17.1348 2 11.75Z" fill="currentColor" />
</svg>