<svg viewBox="0 0 32 32" fill="none" xmlns="http://www.w3.org/2000/svg">
    <path d="M14.4375 0.0874995C12.3563 0.53125 10.8625 2.04375 10.4625 4.1125C10.2563 5.2 10.475 6.51875 11.0313 7.4625L11.1938 7.74375L10.925 7.8125C10.3813 7.95 9.64375 8.20625 9.19375 8.4125C8.9375 8.53125 8.7125 8.625 8.6875 8.625C8.65625 8.625 8.55625 8.49375 8.4625 8.325C8.06875 7.65625 7.1875 6.90625 6.3875 6.56875C6.025 6.41875 5.24375 6.25 4.9 6.25C4.78125 6.25 4.6 6.29375 4.5 6.34375C4.11875 6.5375 4.125 6.5 4.125 9.95625V13.1062L3.85 13.6937C3.55 14.3437 3.2375 15.2625 3.125 15.8562L3.05 16.2375L2.25625 16.2625C1.625 16.2812 1.4125 16.3125 1.18125 16.4187C0.76875 16.6062 0.40625 16.9562 0.20625 17.3625L0.03125 17.7187V19.5625C0.03125 21.3125 0.0375 21.4187 0.1625 21.6937C0.35625 22.1125 0.70625 22.4687 1.1125 22.6687C1.45625 22.8375 1.50625 22.8437 2.6375 22.8625L3.8125 22.8875L4.06875 23.3812C4.60625 24.4062 5.525 25.6187 6.2625 26.2687L6.61875 26.5875L6.6375 28.5562C6.65625 30.4187 6.6625 30.55 6.7875 30.8187C6.98125 31.2375 7.33125 31.5937 7.7375 31.7937C8.08125 31.9625 8.125 31.9688 9.125 31.9688C10.125 31.9688 10.1688 31.9625 10.5125 31.7937C10.9188 31.5937 11.2688 31.2312 11.4563 30.8187C11.5625 30.5875 11.5938 30.375 11.6125 29.7437L11.6375 28.9562L11.9875 29.025C12.4688 29.1187 18.2813 29.1187 18.7625 29.025L19.1125 28.9562L19.1375 29.7437C19.1563 30.375 19.1875 30.5875 19.2938 30.8187C19.4813 31.2312 19.8313 31.5937 20.2375 31.7937C20.5813 31.9625 20.625 31.9688 21.625 31.9688C22.625 31.9688 22.6688 31.9625 23.0125 31.7937C23.4188 31.5937 23.7688 31.2375 23.9625 30.8187C24.0875 30.55 24.0938 30.4187 24.1125 28.55L24.1313 26.5625L24.3875 26.3625C24.7063 26.1062 25.4563 25.2125 25.8688 24.6C26.8375 23.1625 27.5813 21.2062 27.775 19.5625C27.8875 18.625 27.8625 18.6937 28.1125 18.6562C28.5688 18.5812 29.4125 18.2937 29.8438 18.075C30.3813 17.7937 31.0625 17.1312 31.3938 16.5625C31.8 15.8562 31.9563 15.275 31.9625 14.4062C31.9688 13.2687 31.7125 12.5062 31.0313 11.6312C30.6125 11.1062 30.3438 10.975 30.0063 11.1562C29.775 11.275 29.6063 11.6125 29.6625 11.8312C29.6813 11.9125 29.8188 12.1312 29.975 12.3187C30.5875 13.0562 30.85 13.9937 30.6938 14.8687C30.5313 15.7875 29.9438 16.6187 29.2 16.9937C28.7938 17.2 27.9563 17.4562 27.8688 17.4C27.8375 17.3812 27.8125 17.275 27.8125 17.1562C27.8125 17.0375 27.7563 16.65 27.6875 16.2937C27.1 13.2625 25.1125 10.55 22.3125 8.9625C21.6125 8.56875 20.5688 8.125 19.95 7.9625C19.7188 7.90625 19.525 7.85 19.5125 7.8375C19.5 7.83125 19.5813 7.68125 19.6875 7.5125C20.625 5.9875 20.575 3.8375 19.5688 2.3C18.8625 1.21875 17.8563 0.5 16.5625 0.14375C16.075 0.0124995 14.9375 -0.0187505 14.4375 0.0874995ZM16.275 1.375C16.9813 1.55625 17.4625 1.83125 18 2.375C18.5438 2.9125 18.8188 3.39375 19 4.1C19.225 4.98125 19.1125 5.9375 18.675 6.76875C18.4125 7.275 17.65 8.0375 17.1438 8.3C16.3125 8.7375 15.3563 8.85 14.475 8.625C13.7688 8.44375 13.2875 8.16875 12.75 7.625C12.2063 7.0875 11.9313 6.60625 11.75 5.9C11.525 5.01875 11.6375 4.0625 12.075 3.23125C12.3375 2.725 13.1 1.9625 13.6063 1.7C14.4375 1.2625 15.3938 1.15 16.275 1.375ZM6.1 7.81875C6.7875 8.14375 7.4625 8.88125 7.6875 9.55625C7.8 9.89375 8.0625 10.125 8.35 10.125C8.4875 10.125 8.81875 9.99375 9.2625 9.775C10.0563 9.375 11 9.05 11.6875 8.9375L12.1563 8.85625L12.6313 9.16875C14.2938 10.2562 16.45 10.2562 18.1 9.18125L18.5063 8.91875L18.9063 8.99375C20.0375 9.2 21.6875 9.94375 22.6875 10.6875C25.8438 13.0562 27.2125 16.65 26.3625 20.3437C25.9188 22.2625 25.025 23.9187 23.7063 25.2437C23.3125 25.6375 22.9688 26.0062 22.9313 26.0687C22.9 26.1312 22.875 27.05 22.875 28.1875C22.875 30.3875 22.8625 30.4687 22.5 30.6562C22.2438 30.7875 21.0063 30.7875 20.75 30.6562C20.3938 30.475 20.375 30.3625 20.375 28.5062C20.375 26.6875 20.3563 26.5562 20.0563 26.4C19.8375 26.2875 19.6625 26.2875 19.4438 26.4C19.2063 26.525 19.125 26.7437 19.125 27.25C19.125 27.7375 19.1813 27.7 18.3125 27.8125C17.7063 27.8875 13.0438 27.8875 12.4375 27.8125C11.5688 27.7 11.625 27.7437 11.625 27.2437C11.625 26.7437 11.525 26.5 11.2813 26.3875C11.075 26.2937 10.925 26.2937 10.7188 26.3875C10.3938 26.5312 10.375 26.6625 10.375 28.5C10.375 30.3625 10.3563 30.475 10 30.6562C9.74375 30.7875 8.50625 30.7875 8.25 30.6562C7.8875 30.4687 7.875 30.3937 7.875 28.175C7.86875 26.7062 7.85 26.1187 7.79375 26.0187C7.75 25.9437 7.525 25.7125 7.2875 25.5125C6.40625 24.75 5.64375 23.7375 5.0375 22.5187C4.775 21.9875 4.64375 21.7937 4.50625 21.7187C4.35625 21.6437 4.06875 21.625 3.0625 21.625C1.175 21.625 1.25 21.7125 1.25 19.5625C1.25 17.9437 1.275 17.7812 1.58125 17.6125C1.66875 17.5562 2.08125 17.5187 2.76875 17.5L3.825 17.4687L3.99375 17.275C4.1375 17.1187 4.19375 16.9562 4.28125 16.4625C4.41875 15.6687 4.725 14.75 5.0875 14.0062L5.375 13.4125V10.4875V7.5625L5.55 7.6C5.64375 7.625 5.89375 7.71875 6.1 7.81875Z"  />
    <path d="M15.0687 3.21251C14.775 3.37501 14.7562 3.50001 14.75 4.98751C14.75 6.07501 14.7687 6.41876 14.8375 6.55626C15.0562 6.96876 15.6937 6.96876 15.9125 6.55626C16.0312 6.32501 16.0375 3.71876 15.925 3.46876C15.7875 3.16876 15.375 3.04376 15.0687 3.21251Z"  />
    <path d="M11.3189 11.3375C10.9001 11.5688 10.9126 12.2313 11.3439 12.425C11.4626 12.4813 12.2251 12.5 14.1251 12.5C16.9376 12.5 17.0001 12.4938 17.1626 12.1813C17.3314 11.8563 17.2126 11.4625 16.9064 11.325C16.6626 11.2125 11.5251 11.225 11.3189 11.3375Z"  />
    <path d="M18.8187 11.3375C18.275 11.6375 18.5062 12.5 19.125 12.5C19.4437 12.5 19.75 12.1938 19.75 11.8813C19.75 11.4125 19.2312 11.1063 18.8187 11.3375Z"  />
    <path d="M7.89385 15.1125C6.3251 15.675 6.19385 17.8125 7.6751 18.5438C8.18135 18.7938 8.81885 18.7938 9.3251 18.5438C9.99385 18.2125 10.3438 17.6438 10.3438 16.875C10.3438 16.3438 10.2126 15.9875 9.88135 15.6063C9.43135 15.1 8.5501 14.875 7.89385 15.1125ZM8.80635 16.3375C9.2251 16.5563 9.2126 17.2313 8.78135 17.425C8.4626 17.5688 8.1126 17.4688 7.9626 17.1813C7.66885 16.6125 8.2376 16.0438 8.80635 16.3375Z"  />
</svg>