<svg viewBox="0 0 32 32" fill="none" xmlns="http://www.w3.org/2000/svg">
    <g clip-path="url(#clip0_27_47)">
    <path d="M0.31875 3.58751C-0.0125 3.76876 0.00625 3.06876 0 15.9813C0 25.1688 0.01875 28.0313 0.075 28.1563C0.24375 28.525 -0.875 28.5 16 28.5C32.875 28.5 31.7563 28.525 31.925 28.1563C31.9813 28.0313 32 25.1625 32 15.9938C32 2.94376 32.025 3.73751 31.6562 3.57501C31.4062 3.45626 0.53125 3.46876 0.31875 3.58751ZM4.9625 4.88751C4.98125 4.96876 5 5.18751 5 5.37501C5 6.80626 3.91875 8.13751 2.5125 8.43126C2.15 8.50626 1.6125 8.51876 1.39375 8.46251L1.25 8.42501V6.58751V4.75001H3.0875H4.925L4.9625 4.88751ZM25.7625 5.21251C25.725 5.89376 25.8875 6.60626 26.2313 7.31251C26.4688 7.81251 26.6 7.99376 27.0562 8.44376C27.5063 8.88751 27.7 9.03126 28.1938 9.26876C28.8938 9.61251 29.6063 9.77501 30.2875 9.73751L30.75 9.71876V12.25V14.7813L30.2938 14.7625C29.6 14.725 28.8813 14.8813 28.1875 15.225C27.6938 15.4688 27.5 15.6125 27.0562 16.0563C26.6125 16.5 26.4688 16.6938 26.225 17.1875C25.8813 17.8813 25.725 18.6 25.7625 19.2938L25.7812 19.75H16H6.21875L6.2375 19.2875C6.275 18.6063 6.1125 17.8938 5.775 17.2C5.01875 15.6438 3.34375 14.6563 1.6625 14.7625L1.25 14.7875V12.25V9.71876L1.7125 9.73751C2.2375 9.76876 3.05 9.62501 3.53125 9.41876C5.19375 8.71876 6.325 6.95626 6.2375 5.21251L6.21875 4.75001H16H25.7812L25.7625 5.21251ZM30.75 6.58751V8.42501L30.6125 8.46251C30.3875 8.51876 29.8438 8.50626 29.4875 8.43126C28.3062 8.18126 27.3125 7.18126 27.0688 6.01251C26.9937 5.65001 26.9813 5.11251 27.0375 4.88751L27.075 4.75001H28.9125H30.75V6.58751ZM2.5125 16.0688C3.68125 16.3125 4.6875 17.3188 4.93125 18.4875C5.00625 18.85 5.01875 19.3875 4.9625 19.6063L4.925 19.75H3.0875H1.25V17.9125C1.25 15.825 1.19375 16.0188 1.825 16.0063C2.01875 16.0063 2.33125 16.0313 2.5125 16.0688ZM30.6125 16.0375L30.75 16.075V17.9125V19.75H28.9125H27.075L27.0375 19.6063C26.9813 19.3875 26.9937 18.85 27.0688 18.4875C27.3062 17.35 28.2625 16.3625 29.3938 16.0875C29.7437 16.0063 30.3813 15.9813 30.6125 16.0375ZM12.875 22.25V23.5H11.6875C10.4062 23.5 10.2375 23.5313 10.0875 23.8188C9.975 24.0375 9.975 24.2125 10.0875 24.4313C10.2375 24.7188 10.4062 24.75 11.6875 24.75H12.875V26V27.25H7.0625H1.25V26V24.75H3.5C5.9125 24.75 6 24.7375 6.1625 24.4313C6.26875 24.2188 6.275 24.0563 6.175 23.8438C6.025 23.5125 5.95 23.5 3.5 23.5H1.25V22.25V21H7.0625H12.875V22.25ZM17.875 24.125V27.25H16H14.125V24.125V21H16H17.875V24.125ZM30.75 22.25V23.5H24.9375H19.125V22.25V21H24.9375H30.75V22.25ZM30.75 26V27.25H24.9375H19.125V26V24.75H24.9375H30.75V26Z"/>
    <path d="M14.9187 6.09376C12.4437 6.56251 10.5437 8.35626 9.91869 10.8125C9.71869 11.6125 9.73119 12.9938 9.94994 13.8188C10.4999 15.875 12.0249 17.5 14.0437 18.1813C15.7062 18.7438 17.6624 18.525 19.1874 17.6188C21.9874 15.9563 23.0437 12.3813 21.5874 9.48126C20.7624 7.82501 19.2562 6.62501 17.4687 6.18126C16.7999 6.01251 15.5687 5.96876 14.9187 6.09376ZM17.1874 7.39376C17.8124 7.56876 18.2374 7.75001 18.7062 8.06251C20.6937 9.35626 21.4937 11.7938 20.6624 14.0063C20.4874 14.4813 20.0249 15.3125 19.9374 15.3125C19.9187 15.3125 19.8374 15.1813 19.7499 15.0125C19.5249 14.5813 18.7624 13.8125 18.2874 13.5375L17.8749 13.3L18.0062 13.1188C18.0749 13.025 18.2062 12.7813 18.2999 12.5813C18.4437 12.2688 18.4687 12.1375 18.4687 11.6188C18.4687 11.0563 18.4562 11 18.2374 10.55C17.9562 9.98126 17.5937 9.63126 17.0124 9.35626C16.6312 9.17501 16.5374 9.15626 15.9937 9.15626C15.4312 9.15626 15.3749 9.16876 14.9249 9.38751C14.3562 9.66876 14.0062 10.0313 13.7312 10.6125C13.5499 10.9938 13.5312 11.0875 13.5312 11.625C13.5312 12.1375 13.5562 12.2688 13.6999 12.5813C13.7937 12.7813 13.9249 13.025 13.9999 13.125L14.1249 13.3L13.7812 13.4938C13.2999 13.7688 12.5687 14.4813 12.3124 14.9313C12.1937 15.1375 12.0812 15.3063 12.0624 15.3125C11.9999 15.3125 11.5374 14.5438 11.3999 14.1938C11.1187 13.4938 11.0374 13.075 11.0374 12.25C11.0312 11.1625 11.2499 10.3938 11.8124 9.53751C12.5499 8.41251 13.7062 7.62501 15.0624 7.33751C15.5624 7.23126 16.6999 7.26251 17.1874 7.39376ZM16.6874 10.5875C17.0562 10.8313 17.2187 11.1438 17.2187 11.625C17.2187 12.1125 17.0562 12.4188 16.6687 12.675C16.3187 12.9063 15.7124 12.9188 15.3562 12.6938C14.8812 12.4 14.6624 11.8188 14.8062 11.2625C14.8937 10.9438 15.2749 10.5313 15.5749 10.4438C15.9062 10.3438 16.4187 10.4063 16.6874 10.5875ZM16.6374 14.1938C17.4312 14.3563 18.2562 14.95 18.6687 15.6313C19.0124 16.2125 19.0062 16.2625 18.5687 16.525C18.0249 16.8563 17.2687 17.1125 16.5874 17.2C15.5312 17.3313 14.3937 17.1 13.4812 16.5563C12.9874 16.2625 12.9812 16.225 13.3312 15.6313C13.9874 14.5313 15.3687 13.9313 16.6374 14.1938Z"/>
    <path d="M4.06886 11.7125C3.65011 11.9438 3.66261 12.6063 4.09386 12.8C4.34386 12.9125 6.9501 12.9063 7.18135 12.7875C7.59385 12.5688 7.59385 11.9313 7.18135 11.7125C6.9376 11.5875 4.29386 11.5875 4.06886 11.7125Z"/>
    <path d="M24.8186 11.7125C24.5249 11.875 24.4249 12.2375 24.5874 12.5562C24.7436 12.85 24.8936 12.875 26.3811 12.875C27.8749 12.875 28.0311 12.8437 28.1749 12.5312C28.3186 12.2125 28.2186 11.8625 27.9311 11.7125C27.6874 11.5875 25.0436 11.5875 24.8186 11.7125Z"/>
    <path d="M7.81873 23.5875C7.27498 23.8875 7.50623 24.75 8.12498 24.75C8.44373 24.75 8.74998 24.4438 8.74998 24.1313C8.74998 23.6625 8.23123 23.3563 7.81873 23.5875Z"/>
    </g>
    <defs>
    <clipPath id="clip0_27_47">
    <rect width="32" height="32" fill="white"/>
    </clipPath>
    </defs>
    </svg>
    