<svg viewBox="0 0 32 32" fill="none" xmlns="http://www.w3.org/2000/svg">
    <path d="M9.93753 0.0374928C6.80628 0.299994 4.76252 0.918743 3.77502 1.90624C3.13127 2.54999 3.18752 1.46249 3.18752 12.875C3.18752 24.2875 3.13127 23.2 3.77502 23.8437C4.55627 24.625 6.11878 25.2125 8.22503 25.525C9.03128 25.6437 10.375 25.75 11.1 25.75H11.6688L11.8438 26.2375C12.2688 27.45 13.0188 28.5812 14.0438 29.5625C15.275 30.7437 16.6188 31.4562 18.3313 31.825C19.175 32.0062 20.8063 32.0187 21.6563 31.85C22.8438 31.6125 23.9813 31.1437 25 30.4687C25.6063 30.0687 26.8813 28.7937 27.2813 28.1875C27.9563 27.1687 28.425 26.0375 28.6625 24.8437C28.8313 24.0062 28.8188 22.3687 28.6375 21.5187C28.25 19.7312 27.525 18.4 26.2188 17.0937C24.5563 15.425 22.6875 14.6125 20.3 14.5187L19.4375 14.4812V8.68749C19.4375 2.01874 19.4813 2.53749 18.8438 1.89999C18.0125 1.06249 16.25 0.437492 13.875 0.149992C13.1375 0.0624924 10.5438 -0.0125065 9.93753 0.0374928ZM13.875 1.40624C15.8625 1.66874 17.5375 2.24374 18.0375 2.83124C18.225 3.05624 18.225 3.19374 18.0375 3.41874C17.5375 4.00624 15.8688 4.57499 13.8438 4.84999C12.7188 5.00624 9.92503 5.00624 8.81253 4.85624C6.81878 4.58124 5.29378 4.08124 4.67502 3.49374C4.30002 3.13749 4.37502 2.90624 5.01252 2.49999C5.91878 1.91249 7.76253 1.45624 9.90628 1.28749C10.5688 1.23749 13.1875 1.31249 13.875 1.40624ZM5.87503 5.49374C9.40003 6.63749 15.0563 6.44999 17.7625 5.09374L18.1875 4.88124V6.03124C18.1875 7.14999 18.1813 7.18124 18.0375 7.35624C17.5313 7.94999 15.9188 8.49999 13.8125 8.79374C12.725 8.94374 9.91878 8.94374 8.81253 8.79374C6.81878 8.51874 5.29378 8.01874 4.67502 7.43124L4.43752 7.20624V6.03749V4.87499L4.86252 5.08749C5.09377 5.19999 5.55003 5.38749 5.87503 5.49374ZM5.87503 9.43124C8.76253 10.3687 13.1125 10.4375 16.2438 9.58749C16.9063 9.40624 17.6813 9.11249 17.9875 8.92499L18.1875 8.79999V9.97499V11.1437L17.9625 11.3562C17.35 11.9312 15.6063 12.5187 13.9125 12.7187C13.2313 12.8 12.9625 13.3125 13.3688 13.7625C13.5438 13.9562 13.575 13.9687 13.95 13.9562C14.825 13.9375 16.9313 13.3812 17.8 12.9437L18.1875 12.75V13.7187C18.1875 14.4437 18.1688 14.7 18.1125 14.7125C18.0688 14.725 17.7813 14.8125 17.4688 14.9062C16.7625 15.1187 15.8063 15.575 15.15 16.0187C14.7 16.3187 14.5875 16.3687 14.15 16.4312C12.075 16.725 9.49378 16.6625 7.53128 16.275C6.36878 16.0437 5.11252 15.5375 4.67502 15.1187L4.43752 14.8937V13.8125V12.7375L4.58752 12.8375C4.88752 13.0312 5.81253 13.375 6.51878 13.5562C7.46878 13.8 8.76253 14.0125 8.96253 13.9625C9.05003 13.9437 9.20003 13.8375 9.28753 13.7312C9.42503 13.5687 9.44378 13.4937 9.41878 13.2875C9.36878 12.9125 9.18128 12.7812 8.55003 12.6937C6.73128 12.4312 5.23128 11.9187 4.68127 11.3687L4.43752 11.125V9.96874V8.81249L4.86252 9.02499C5.09377 9.13749 5.55003 9.32499 5.87503 9.43124ZM21.55 15.9C23.8438 16.4 25.7313 17.8562 26.775 19.925C27.3 20.975 27.5313 21.9812 27.5313 23.25C27.5313 24.2312 27.4563 24.725 27.1813 25.575C26.8188 26.6937 26.2188 27.6687 25.35 28.5375C24.2563 29.625 22.9375 30.3312 21.4063 30.6312C20.7688 30.7562 19.225 30.7437 18.575 30.6C17.1125 30.2875 15.9313 29.6625 14.8875 28.6625C13.7813 27.6 13.0813 26.3625 12.7375 24.8625C12.5563 24.075 12.5438 22.5312 12.7125 21.75C13.1938 19.5187 14.625 17.625 16.6063 16.6125C17.4563 16.175 18.175 15.95 19.2188 15.7875C19.6 15.7312 21.1063 15.8062 21.55 15.9ZM5.87503 17.1187C7.56253 17.6687 9.62503 17.9187 11.9188 17.8562L13.1813 17.8187L12.875 18.275C12.4875 18.8437 12.0563 19.6625 11.875 20.1687L11.7313 20.5625H11.125C8.41878 20.5625 5.56253 19.9 4.68752 19.0687L4.43752 18.8312V17.6625V16.5L4.86252 16.7125C5.09377 16.825 5.55003 17.0125 5.87503 17.1187ZM5.87503 21.0562C7.25628 21.5062 9.31253 21.8125 10.95 21.8125H11.4375L11.3938 22.075C11.3625 22.225 11.3438 22.8312 11.3438 23.4312L11.35 24.5187L10.4125 24.475C7.68753 24.35 5.25003 23.7 4.58752 22.9187C4.44377 22.7437 4.43752 22.7125 4.43752 21.5875V20.4375L4.86252 20.65C5.09377 20.7625 5.55003 20.95 5.87503 21.0562Z" />
    <path d="M11.0062 12.9625C10.4625 13.2625 10.6937 14.125 11.3125 14.125C11.6312 14.125 11.9375 13.8188 11.9375 13.5063C11.9375 13.0375 11.4187 12.7313 11.0062 12.9625Z" />
    <path d="M19.7562 18.9625C19.5249 19.0875 19.4437 19.3062 19.4374 19.7812L19.4312 20.2187L19.1124 20.4062C17.5875 21.2875 18.0874 23.6375 19.8437 23.85C20.2937 23.9 20.4937 23.9937 20.5937 24.1937C20.8499 24.6875 20.4624 25.2 19.9124 25.1C19.7874 25.075 19.5624 24.9312 19.3499 24.75C18.9437 24.3937 18.6937 24.3437 18.4124 24.5687C18.1812 24.75 18.1062 24.9687 18.1874 25.225C18.2749 25.475 18.7749 25.95 19.1499 26.1375L19.4374 26.275V26.7C19.4374 27.1937 19.5249 27.4125 19.7562 27.5375C19.9749 27.65 20.1499 27.65 20.3687 27.5375C20.5999 27.4125 20.6874 27.1937 20.6874 26.7L20.6937 26.2812L21.0124 26.0937C22.5374 25.2125 22.0374 22.8625 20.2812 22.65C19.8312 22.6 19.6312 22.5062 19.5312 22.3062C19.2749 21.8187 19.6624 21.2937 20.1999 21.4C20.3124 21.425 20.5124 21.525 20.6437 21.6312C20.7812 21.7437 20.9874 21.8375 21.1187 21.8562C21.3187 21.8812 21.3874 21.8625 21.5687 21.7C21.9999 21.3125 21.7874 20.7937 21.0187 20.3937L20.6874 20.2187V19.8C20.6874 19.3062 20.5999 19.0875 20.3687 18.9625C20.1562 18.8562 19.9499 18.8562 19.7562 18.9625Z" />
</svg>