<svg viewBox="0 0 32 32" fill="none" xmlns="http://www.w3.org/2000/svg">
    <path d="M18.0001 0.0311852C17.9501 0.0436611 17.6938 0.087326 17.4376 0.124753C15.8251 0.386742 14.2251 1.37855 13.1813 2.76335C12.7001 3.39961 12.2313 4.36023 12.0188 5.14619C11.8688 5.7076 11.8501 5.87602 11.8501 6.86159C11.8501 7.84717 11.8688 8.01559 12.0188 8.57699C12.5313 10.492 13.8626 12.1263 15.6251 13.0183C16.1501 13.2865 17.0251 13.5672 17.6376 13.6608C18.3376 13.7731 19.7063 13.7107 20.3751 13.5361C21.5751 13.2179 22.5376 12.6815 23.4501 11.8019C24.3688 10.9224 25.0251 9.80584 25.3563 8.57699C25.5063 8.01559 25.5251 7.84717 25.5251 6.86159C25.5251 5.88226 25.5063 5.7076 25.3563 5.16491C24.6751 2.61988 22.6626 0.698632 20.1001 0.149704C19.6938 0.0623751 18.2188 -0.0249548 18.0001 0.0311852ZM20.0938 1.43469C22.4876 2.05224 24.1751 4.13567 24.2938 6.61208C24.4876 10.6791 20.4438 13.5672 16.6126 12.0951C14.9063 11.4339 13.5563 9.83703 13.1813 8.01559C12.5438 4.94035 14.5688 1.92748 17.6688 1.34113C18.3251 1.21637 19.4313 1.26003 20.0938 1.43469Z"/>
    <path d="M18.2375 2.60119C18.0062 2.74466 17.9375 2.93179 17.9375 3.42458C17.9375 3.84251 17.9312 3.85499 17.7437 3.92984C17.6375 3.97351 17.4187 4.14193 17.2562 4.30411C16.3375 5.18988 16.5812 6.71815 17.7312 7.29203C17.875 7.36064 18.1875 7.44797 18.4187 7.4854C18.775 7.52906 18.875 7.57273 19.0187 7.73491C19.2062 7.947 19.2312 8.15284 19.0937 8.42107C18.8687 8.85772 18.2937 8.839 17.875 8.38988C17.5187 8.00937 17.1 7.95947 16.8062 8.27136C16.5937 8.49592 16.6062 8.82653 16.8375 9.12594C17.0187 9.36298 17.7 9.85577 17.8437 9.85577C17.9 9.85577 17.9312 10.0055 17.9437 10.3922C17.9687 10.885 17.9812 10.9349 18.1437 11.0784C18.2625 11.1782 18.3937 11.2281 18.5625 11.2281C18.7312 11.2281 18.8625 11.1782 18.9812 11.0784C19.1437 10.9411 19.1562 10.885 19.175 10.3985C19.2 9.90567 19.2125 9.86201 19.3375 9.83082C19.4187 9.8121 19.6125 9.68111 19.775 9.53764C20.9875 8.47097 20.425 6.53101 18.8312 6.28774C18.3 6.20665 18.1375 6.13179 18.025 5.91347C17.8812 5.639 17.9187 5.43316 18.15 5.20236C18.4562 4.8967 18.7812 4.93413 19.2687 5.33959C19.7125 5.70762 20.4062 5.30216 20.2812 4.74076C20.2312 4.52244 19.85 4.16064 19.4687 3.97974L19.1875 3.84251V3.4121C19.1875 2.93803 19.0812 2.67604 18.8312 2.56376C18.625 2.47019 18.4375 2.48267 18.2375 2.60119Z"/>
    <path d="M28.8062 13.3988C28.3188 13.561 28 13.7981 27.2812 14.5466C26.9375 14.8959 26.0562 15.8004 25.325 16.5489L23.9937 17.915L23.7125 17.653C23.35 17.3162 22.85 17.0916 22.325 17.023C22.0938 16.9981 20.3625 16.9731 18.475 16.9669H15.0437L14.4625 16.7797C13.5813 16.499 12.9 16.3992 11.875 16.3992C10.1125 16.3992 8.69375 16.8047 7.325 17.6905C6.625 18.1458 5.68125 19.0877 5.23125 19.7801L4.88125 20.3166L4.44375 20.3478C3.7 20.4039 3.58125 20.4912 1.7375 22.3314L0.0625 23.9969V24.2901V24.5895L3.6625 28.2199C5.64375 30.2098 7.325 31.8753 7.4 31.9189C7.575 32.0187 7.78125 32.0187 7.9875 31.9127C8.08125 31.8628 8.90625 31.0706 9.81875 30.1474C11.7188 28.2386 11.7188 28.2324 11.6813 27.3341L11.6562 26.8538L12.1313 26.4172C12.8875 25.7123 12.4938 25.7622 17.625 25.7622C20.3313 25.7622 22.2375 25.7372 22.5562 25.6998C23.6063 25.5626 24.675 25.1072 25.4813 24.4398C25.9438 24.0593 31.6688 17.2039 31.85 16.8109C31.9813 16.5427 32 16.3992 32 15.7817C32 15.1205 31.9875 15.0331 31.825 14.6901C31.5813 14.1848 31.1562 13.7606 30.6375 13.5174C30.1 13.2678 29.3563 13.2179 28.8062 13.3988ZM30.15 14.6776C30.5562 14.9084 30.7688 15.2265 30.8 15.6445C30.8188 15.8815 30.7938 16.0811 30.7313 16.2308C30.6125 16.5115 25.3438 22.8304 24.7812 23.3669C24.325 23.8035 23.7437 24.1279 23.0625 24.3337C22.6 24.4772 22.5562 24.4772 17.7188 24.5146C14.3438 24.5396 12.7812 24.5708 12.6438 24.6207C12.2125 24.7704 11.6875 25.101 11.2688 25.4815L10.8313 25.8807L8.3875 23.4355L5.9375 20.9903L6.2375 20.5224C7.4375 18.6636 9.425 17.6468 11.8625 17.6468C12.8188 17.6468 13.4187 17.7404 14.1625 18.0086L14.6562 18.1832L18.5 18.2144C22.3313 18.2456 22.3438 18.2456 22.6063 18.3829C23.5063 18.8632 23.5063 20.1232 22.6063 20.6035C22.35 20.7408 22.3 20.7408 19.4813 20.7719L16.6125 20.8031L16.4625 20.9778C16.25 21.2273 16.2625 21.5267 16.4937 21.7825L16.675 21.9883L19.2812 22.007C22.0688 22.0257 22.5562 21.9946 23.0875 21.7513C23.9563 21.3521 24.6313 20.2604 24.5562 19.3747C24.5375 19.1688 24.6375 19.0503 26.6438 16.9856C27.8875 15.7131 28.8625 14.7587 29.0125 14.6714C29.3563 14.4842 29.8188 14.4842 30.15 14.6776ZM7.6375 24.4335L10.4375 27.2281V27.5088V27.7895L9.1 29.1119C8.3625 29.8417 7.7375 30.4406 7.70625 30.4406C7.68125 30.4406 6.275 29.062 4.59375 27.384L1.53125 24.3275L2.91875 22.9427L4.30625 21.5641L4.56875 21.6016C4.825 21.6328 4.96875 21.77 7.6375 24.4335Z"/>
    <path d="M13.9937 20.7408C13.6625 20.9217 13.6125 21.3957 13.8875 21.6889C14.1562 21.9758 14.6687 21.9197 14.8437 21.5766C15.15 20.984 14.575 20.4226 13.9937 20.7408Z"/>
    </svg>
    