<svg viewBox="0 0 32 32" fill="none" xmlns="http://www.w3.org/2000/svg">

    <path d="M8.78115 0.1125C8.3749 0.25 8.0999 0.45625 7.86865 0.76875C7.55615 1.2 7.4999 1.5125 7.4999 2.88125V4.1125L6.33115 4.1375C5.19365 4.15625 5.14365 4.1625 4.7999 4.33125C4.1249 4.6625 3.80615 5.2 3.7624 6.075L3.7374 6.625H3.2749C3.0249 6.625 2.66865 6.65625 2.4874 6.69375C1.31865 6.9375 0.312402 7.94375 0.0686524 9.1125C-0.0313477 9.58125 -0.0313477 29.0437 0.0686524 29.5125C0.312402 30.6812 1.31865 31.6875 2.4874 31.9312C2.71865 31.9812 5.73115 32 12.7062 32C21.3812 32 22.6437 31.9875 22.9687 31.9062C24.0437 31.6312 24.8562 30.8937 25.1937 29.8812L25.3249 29.5H25.9999C26.3749 29.5 26.8312 29.4687 27.0124 29.4312C28.1812 29.1875 29.1874 28.1812 29.4312 27.0125C29.4687 26.8312 29.4999 26.25 29.4999 25.725V24.7625L30.0499 24.7375C30.9374 24.6937 31.5062 24.3437 31.8374 23.6312C31.9687 23.35 31.9687 23.2687 31.9687 20V16.6562L31.7687 16.2375C31.6624 16.0062 31.4562 15.6937 31.3124 15.5375C30.9874 15.1875 30.3124 14.8375 29.8437 14.7812L29.4999 14.7375V12.0875C29.4999 10.4 29.4749 9.325 29.4312 9.1125C29.1874 7.94375 28.1812 6.9375 27.0124 6.69375C26.8124 6.65 25.9249 6.625 24.7812 6.625H22.8812L22.8624 4.0125C22.8437 1.5125 22.8374 1.39375 22.7124 1.11875C22.5187 0.70625 22.2249 0.40625 21.8249 0.20625L21.4687 0.0312495L15.2812 0.0187495C9.53115 0.00624952 9.06865 0.0124995 8.78115 0.1125ZM21.3062 1.3375C21.3999 1.3875 21.5062 1.5 21.5499 1.59375C21.6062 1.7125 21.6249 3 21.6249 6.6875V11.625H20.1874H18.7562L18.7374 8.575L18.7187 5.53125L18.5437 5.175C18.3437 4.775 18.0437 4.48125 17.6312 4.2875C17.3499 4.15625 17.2624 4.15625 13.0499 4.1375L8.7499 4.11875V2.91875C8.75615 1.6375 8.78115 1.49375 9.06865 1.3375C9.2999 1.2125 21.0562 1.2125 21.3062 1.3375ZM9.9999 8.5V11.625H7.4999H4.9999V8.73125C5.00615 6.45625 5.0249 5.8125 5.0874 5.69375C5.25615 5.3875 5.3124 5.38125 7.7374 5.375H9.9999V8.5ZM13.7499 8.5V11.625H12.4999H11.2499V8.5V5.375H12.4999H13.7499V8.5ZM17.1562 5.45C17.4999 5.60625 17.4999 5.625 17.4999 8.75V11.625H16.2499H14.9999V8.5V5.375H15.9999C16.6374 5.375 17.0499 5.4 17.1562 5.45ZM3.7499 9.75625V11.6437L3.2249 11.6125C2.56865 11.5812 2.1249 11.375 1.7249 10.9312C1.28115 10.4375 1.1499 9.85625 1.34365 9.20625C1.59365 8.36875 2.30615 7.88125 3.2999 7.875H3.7499V9.75625ZM27.1312 8.0375C27.5437 8.23125 27.8437 8.525 28.0437 8.925L28.2187 9.28125L28.2374 13.8875L28.2499 18.5H26.8124H25.3749V16.45C25.3749 14.8125 25.3562 14.325 25.2812 14.0312C25.0062 12.9562 24.2687 12.1437 23.2562 11.8062L22.8749 11.675V9.775V7.86875L24.8624 7.8875C26.7249 7.90625 26.8624 7.9125 27.1312 8.0375ZM1.55615 12.4062C1.69365 12.4875 1.98115 12.625 2.1999 12.7L2.59365 12.8437L12.6562 12.875L22.7187 12.9062L23.0062 13.0375C23.4187 13.2312 23.7187 13.525 23.9187 13.925L24.0937 14.2812L24.1124 16.3875L24.1312 18.4937L21.7062 18.5125L19.2812 18.5312L18.9249 18.7062C18.5249 18.9062 18.2312 19.2062 18.0374 19.6187C17.9124 19.8875 17.9062 20.0062 17.9062 21.625C17.9062 23.2437 17.9124 23.3625 18.0374 23.6312C18.2312 24.0437 18.5249 24.3437 18.9249 24.5437L19.2812 24.7187L21.7062 24.7375L24.1312 24.7562L24.1124 27.05L24.0937 29.3437L23.9187 29.7C23.7187 30.1 23.4187 30.3937 23.0062 30.5875L22.7187 30.7187H12.6874H2.65615L2.36865 30.5875C1.95615 30.3937 1.65615 30.1 1.45615 29.7L1.28115 29.3437L1.2624 20.7937C1.25615 16.0937 1.2624 12.25 1.28115 12.25C1.2999 12.25 1.4249 12.3187 1.55615 12.4062ZM30.1937 16.2187C30.5562 16.4562 30.7187 16.7687 30.7187 17.25C30.7187 17.5687 30.6874 17.7062 30.5687 17.8937C30.3937 18.1812 30.0562 18.4125 29.7374 18.4687L29.4999 18.5125V17.25V15.9875L29.7374 16.0312C29.8624 16.05 30.0687 16.1375 30.1937 16.2187ZM30.7499 21.2187C30.7499 23.1562 30.7312 23.275 30.4062 23.425C30.2874 23.4812 28.9187 23.5 24.9312 23.5C19.1624 23.5 19.3624 23.5125 19.1999 23.1562C19.1499 23.0437 19.1249 22.55 19.1249 21.6187C19.1249 20.175 19.1624 19.9625 19.4187 19.8375C19.4812 19.8062 21.9062 19.7687 24.8124 19.75C30.0687 19.7187 30.0937 19.7187 30.3749 19.5812C30.5312 19.5062 30.6749 19.4437 30.7062 19.4437C30.7312 19.4375 30.7499 20.2375 30.7499 21.2187ZM28.2374 25.7937C28.2187 26.7 28.1999 26.8812 28.0874 27.1312C27.8937 27.5437 27.5999 27.8437 27.1999 28.0437C26.8812 28.2 26.7624 28.2187 26.1124 28.2437L25.3749 28.2625V26.5062V24.75H26.8187H28.2624L28.2374 25.7937Z"/>
    <path d="M7.19375 6.71251C6.9 6.87501 6.88125 7.00001 6.875 8.48751C6.875 9.57501 6.89375 9.91876 6.9625 10.0563C7.18125 10.4688 7.81875 10.4688 8.0375 10.0563C8.15625 9.82501 8.1625 7.21876 8.05 6.96876C7.9125 6.66876 7.5 6.54376 7.19375 6.71251Z"/>
    <path d="M12.1937 16.7125C11.9624 16.8375 11.8812 17.0563 11.8749 17.5313L11.8687 17.9688L11.5499 18.1563C10.025 19.0375 10.5249 21.3875 12.2812 21.6C12.7312 21.65 12.9312 21.7438 13.0312 21.9438C13.2874 22.4375 12.8999 22.95 12.3499 22.85C12.2249 22.825 11.9999 22.6813 11.7874 22.5C11.3812 22.1438 11.1312 22.0938 10.8499 22.3188C10.6187 22.5 10.5437 22.7188 10.6249 22.975C10.7124 23.225 11.2124 23.7 11.5874 23.8875L11.8749 24.025V24.45C11.8749 24.9438 11.9624 25.1625 12.1937 25.2875C12.4124 25.4 12.5874 25.4 12.8062 25.2875C13.0374 25.1625 13.1249 24.9438 13.1249 24.45L13.1312 24.0313L13.4499 23.8438C14.9749 22.9625 14.4749 20.6125 12.7187 20.4C12.2687 20.35 12.0687 20.2563 11.9687 20.0563C11.7124 19.5688 12.0999 19.0438 12.6374 19.15C12.7499 19.175 12.9499 19.275 13.0812 19.3813C13.2187 19.4938 13.4249 19.5875 13.5562 19.6063C13.7562 19.6313 13.8249 19.6125 14.0062 19.45C14.4374 19.0625 14.2249 18.5438 13.4562 18.1438L13.1249 17.9688V17.55C13.1249 17.0563 13.0374 16.8375 12.8062 16.7125C12.5937 16.6063 12.3874 16.6063 12.1937 16.7125Z"/>
    <path d="M20.6937 21.0875C20.15 21.3875 20.3812 22.25 21 22.25C21.3187 22.25 21.625 21.9438 21.625 21.6313C21.625 21.1625 21.1062 20.8563 20.6937 21.0875Z"/>
    <path d="M23.1936 21.0875C22.8999 21.25 22.7999 21.6125 22.9624 21.9312C23.1186 22.225 23.2561 22.25 24.9436 22.25C26.6436 22.25 26.7811 22.225 26.9249 21.9062C27.0686 21.5875 26.9686 21.2375 26.6811 21.0875C26.4374 20.9625 23.4186 20.9625 23.1936 21.0875Z"/>
</svg>