<svg viewBox="0 0 32 32" fill="none" xmlns="http://www.w3.org/2000/svg">
    <g clip-path="url(#clip0_27_29)">
        <path d="M18.9063 0.0374947C17.8438 0.199995 17.0563 0.456245 16.2125 0.899996C14.4813 1.825 13.1938 3.39375 12.5938 5.31875L12.425 5.8625L11.2313 5.8875C10.2063 5.9125 9.96878 5.9375 9.59378 6.05624C8.77503 6.325 8.25628 6.64375 7.40629 7.41875C5.36254 9.26875 4.50004 9.625 2.05629 9.625C1.27504 9.625 1.18754 9.6375 0.887536 9.7875C0.706286 9.875 0.481287 10.05 0.375037 10.175C-0.00621335 10.6375 -0.00621336 10.625 0.0125366 14.5062C0.0312866 17.85 0.0375366 18.0437 0.150037 18.275C0.293787 18.5625 0.612536 18.8937 0.893786 19.0437C1.06879 19.1437 1.36254 19.1625 3.46879 19.1937C6.21879 19.2375 6.46254 19.2687 8.06254 19.7812C8.63128 19.9625 9.31878 20.1437 9.59378 20.1875C9.93753 20.2375 11.2938 20.25 13.9688 20.2375L17.8438 20.2187L18.175 20.0375C18.5813 19.8125 18.8438 19.5187 19.05 19.075C19.1813 18.7875 19.2 18.6687 19.175 18.2875C19.1563 18 19.0938 17.75 19.0063 17.575L18.8688 17.3L19.1188 17.0875C19.6688 16.6125 19.8813 15.7312 19.6 15.0562C19.5625 14.9687 19.6438 14.95 20.1688 14.9125C21.2875 14.8375 22.35 14.5375 23.25 14.05C27.6875 11.6375 28.5438 5.7 24.9688 2.15C23.9563 1.15 22.7 0.474995 21.2188 0.156244C20.7875 0.0562458 19.2688 -0.018755 18.9063 0.0374947ZM21.3188 1.275C25.4563 2.33125 27.4125 7.0875 25.2125 10.7562C24.8625 11.3375 24.1063 12.175 23.5438 12.6C22.7375 13.2062 21.1625 13.8125 20.3938 13.8125C20.15 13.8125 20.1188 13.8 20.1563 13.7C20.1875 13.6437 20.2188 13.4125 20.2375 13.1875L20.2625 12.7812L20.8 12.675C23.875 12.0687 25.7875 8.88125 24.8688 5.89375C24.2938 4.04375 22.7375 2.6125 20.875 2.21874C20.3063 2.09999 19.1938 2.09999 18.625 2.21874C16.7813 2.60625 15.2 4.06249 14.6375 5.88125C14.45 6.48125 14.3625 7.3875 14.4375 7.94375C14.4688 8.2 14.5 8.44375 14.5 8.48125C14.5 8.54375 14.3563 8.5625 13.975 8.5625C13.45 8.5625 13.45 8.5625 13.4125 8.3875C13.2063 7.29375 13.4063 5.89375 13.9375 4.76875C14.8313 2.8625 16.5875 1.525 18.675 1.15C19.3875 1.025 20.5688 1.08125 21.3188 1.275ZM20.8188 3.34374C22.8813 3.88124 24.275 6 23.9438 8.10625C23.6313 10.0625 22.1313 11.4625 20.0625 11.725L19.725 11.7625L19.8313 11.6187C20.0813 11.2812 20.2125 10.9 20.2375 10.4562C20.2625 10.0625 20.2813 10.0062 20.4 9.975C20.8625 9.85625 21.3125 9.15 21.3125 8.5375C21.3125 7.66875 20.7625 7.06875 19.8688 6.94375C19.5625 6.90625 19.4438 6.85625 19.3313 6.725C19.1375 6.49374 19.15 6.28125 19.3688 6.05624C19.6375 5.7875 19.8813 5.8125 20.1875 6.125C20.3813 6.325 20.475 6.375 20.6563 6.375C20.9375 6.375 21.1875 6.14375 21.1875 5.8875C21.1875 5.6375 20.875 5.23125 20.5313 5.03125C20.325 4.90625 20.25 4.825 20.25 4.71875C20.25 4.49374 19.9 4.23125 19.6625 4.27499C19.4125 4.325 19.2625 4.475 19.2125 4.725C19.1875 4.85625 19.1313 4.95 19.05 4.975C18.85 5.0375 18.4375 5.4375 18.2938 5.71249C18.1188 6.05 18.1063 6.74374 18.275 7.0625C18.5563 7.6 19.0063 7.90625 19.6375 7.99375C19.9188 8.03125 20.05 8.08125 20.1375 8.1875C20.3 8.3875 20.2813 8.725 20.0938 8.90625C19.9375 9.0625 19.6625 9.1125 19.5938 9C19.5688 8.9625 19.4063 8.85625 19.2313 8.7625C18.9063 8.59375 18.9063 8.59375 17.25 8.5625L15.6 8.53125L15.55 8.3125C15.4625 7.93125 15.4875 6.91875 15.5938 6.46249C16.0375 4.53125 17.9 3.12499 19.8813 3.2125C20.175 3.23125 20.5938 3.28749 20.8188 3.34374ZM12.3 7.75L12.3125 8.5625H11.9063C11.5875 8.5625 11.475 8.5875 11.375 8.6875C11.0938 8.96875 11.1688 9.3875 11.5313 9.53125C11.7125 9.6125 12.325 9.625 15.2188 9.625H18.6875L18.9125 9.83125C19.1063 10.0062 19.1438 10.0937 19.1688 10.3562C19.2 10.65 19.1875 10.6937 18.9938 10.9C18.8313 11.0687 18.7063 11.1375 18.4688 11.1812C18.1063 11.25 17.875 11.4687 17.875 11.7562C17.875 11.9875 18.125 12.25 18.3438 12.25C19.0188 12.25 19.4313 13.0125 19.0188 13.5062C18.7938 13.7687 18.525 13.875 18.0688 13.875C17.5813 13.875 17.35 14.05 17.35 14.4062C17.35 14.6812 17.5938 14.9375 17.8563 14.9375C18.4375 14.9375 18.8438 15.5687 18.575 16.0625C18.4 16.3875 18.1438 16.5062 17.5625 16.5437C17.1188 16.575 17.0438 16.6 16.9375 16.7375C16.65 17.1 16.8813 17.525 17.4063 17.6187C18.1813 17.7625 18.3875 18.6687 17.7313 19.0625C17.5375 19.1812 17.3938 19.1875 13.75 19.1875C9.53128 19.1875 9.72503 19.2 8.26254 18.725C6.68129 18.2125 5.97504 18.125 3.34379 18.125C1.91879 18.1187 1.38129 18.1 1.30629 18.0437C1.06879 17.8625 1.06254 17.7812 1.06254 14.4062C1.06254 10.9375 1.06879 10.8312 1.34379 10.725C1.40004 10.7062 1.81879 10.6875 2.27504 10.6875C4.79379 10.6875 5.99379 10.1687 8.23753 8.1125C9.25003 7.18125 9.88128 6.94375 11.375 6.94375L12.2813 6.9375L12.3 7.75Z"  />
        <path d="M24.9376 21.3563C24.8501 21.3688 22.8813 21.6875 20.5626 22.0625C18.2438 22.4375 16.1938 22.7938 16.0063 22.85C15.6126 22.9688 15.1751 23.3375 14.9876 23.7188C14.9188 23.8563 14.8501 23.975 14.8438 23.9875C14.8313 24 14.2251 23.5688 13.4876 23.0375C12.6501 22.425 12.0438 22.025 11.8501 21.9625C11.0063 21.6813 10.025 22.1625 9.7063 23.0188C9.61255 23.275 9.61255 23.9125 9.7063 24.1563C9.88755 24.625 10.1438 24.85 13.3126 27.3938C15.1188 28.8438 16.9876 30.35 17.4688 30.7375C17.9501 31.125 18.5188 31.525 18.7376 31.6312C19.4251 31.9625 20.2563 32.075 20.9501 31.9312C21.1313 31.8937 22.8563 31.2938 24.7813 30.6063L28.2813 29.35L29.8126 29.3125C31.3001 29.2813 31.3501 29.275 31.5563 29.1313C31.9876 28.825 32.0001 28.7438 32.0001 26.1313C32.0001 23.8875 31.9938 23.775 31.8688 23.525C31.7938 23.3625 31.6438 23.1938 31.5126 23.1125C31.2938 22.975 31.2001 22.9688 29.9063 22.9375C28.3313 22.9 28.4626 22.9375 27.5063 22.225C26.8001 21.7 26.4438 21.525 25.8813 21.4C25.4751 21.3188 25.2438 21.3063 24.9376 21.3563ZM26.0188 22.5438C26.1501 22.6 26.5438 22.85 26.8938 23.1063C28.0313 23.9438 28.2188 24 29.8001 24H30.9376V26.125V28.25H29.7251C29.0626 28.25 28.3751 28.275 28.2063 28.3125C28.0313 28.3438 26.3063 28.9375 24.3688 29.6313L20.8438 30.8938L20.2813 30.9C19.7813 30.9 19.6751 30.8813 19.3126 30.7125C19.0188 30.5688 17.8188 29.65 14.9063 27.3125C12.7063 25.55 10.8563 24.05 10.8 23.975C10.6625 23.8125 10.6563 23.4188 10.7813 23.225C10.9125 23.0313 11.2 22.9125 11.4375 22.9625C11.5501 22.9813 12.9751 23.9813 14.8626 25.3563C18.9001 28.3063 18.8188 28.25 19.1313 28.25C19.2688 28.25 19.4688 28.2125 19.5813 28.1625C19.6938 28.1125 20.3001 27.6375 20.9313 27.1L22.0751 26.125H23.1251C24.1313 26.125 24.1876 26.1188 24.3376 25.9813C24.5563 25.7813 24.5751 25.4813 24.3813 25.2438L24.2626 25.0938L20.2188 25.0625L16.1751 25.0313L16.0251 24.8563C15.7313 24.5125 15.9313 23.9438 16.3751 23.8438C16.4751 23.8188 18.4938 23.4813 20.8563 23.0938C25.3438 22.35 25.4876 22.3375 26.0188 22.5438ZM20.3126 26.2125C20.2626 26.2625 19.9813 26.5 19.7001 26.7375L19.1751 27.1813L18.4938 26.675C18.1188 26.4 17.8126 26.1625 17.8126 26.15C17.8126 26.1375 18.3938 26.125 19.1063 26.125C20.2251 26.125 20.3876 26.1375 20.3126 26.2125Z"  />
    </g>
    <defs>
        <clipPath id="clip0_27_29">
            <rect width="32" height="32" fill="white" />
        </clipPath>
    </defs>
</svg>