<svg width="925" height="213" viewBox="0 0 925 213" fill="none" xmlns="http://www.w3.org/2000/svg">
    <path d="M0.125 120.288C225.125 97.3659 380.312 23.0781 528.812 2.49997C630.197 -11.5493 524.062 121.425 864.75 41.8404M47.9167 135.525C272.917 112.603 383 26.5781 531.5 6C632.885 -8.04921 534.062 131.425 874.75 51.8404M95.7083 150.763C320.708 127.841 385.688 30.0781 534.188 9.5C635.572 -4.54921 544.062 141.425 884.75 61.8405M143.5 166C368.5 143.078 388.375 33.5781 536.875 13C638.26 -1.04923 554.062 151.425 894.75 71.8405M191.292 181.237C416.292 158.315 391.062 37.0781 539.562 16.5C640.947 2.45078 564.062 161.425 904.75 81.8404M239.083 196.475C464.083 173.553 393.75 40.5781 542.25 20C643.635 5.95078 574.062 171.425 914.75 91.8404M286.875 211.712C511.875 188.79 396.438 44.0781 544.938 23.5C646.322 9.45074 584.062 181.425 924.75 101.84" stroke="url(#paint0_linear_33_43)"/>
    <defs>
    <linearGradient id="paint0_linear_33_43" x1="150.5" y1="174" x2="659" y2="80.9997" gradientUnits="userSpaceOnUse">
    <stop stop-color="white" stop-opacity="0.08"/>
    <stop offset="1" stop-color="white" stop-opacity="0"/>
    </linearGradient>
    </defs>
    </svg>
    